# xmcd
#
# Track frame offsets: 
#        150
#        24524
#        39749
#        56299
#        66992
#        80759
#        96685
#        121317
#        138239
#
# Disc length: 2190 seconds
#
# Revision: 0
# Processed by: cddbd v1.5.2PL0 Copyright (c) Steve Scherf et al.
# Submitted via: ExactAudioCopy v1.0b1
#
DISCID=7e088c09
DTITLE=Yank Rachell - Blues Mandolin Man
DYEAR=1990
DGENRE=Blues
TTITLE0=My Baby's Gone
TTITLE1=Moonshine Whiskey
TTITLE2=She Changed the Lock
TTITLE3=Bugle Call
TTITLE4=Dreamy Eyed Woman
TTITLE5=Cigaretie Blues
TTITLE6=Make My Love Come Doown
TTITLE7=Black Snake
TTITLE8=Des Moines, Iowa
EXTD=
EXTT0=
EXTT1=
EXTT2=
EXTT3=
EXTT4=
EXTT5=
EXTT6=
EXTT7=
EXTT8=
PLAYORDER=
